<mxfile host="app.diagrams.net" modified="2023-08-01T10:41:09.050Z" agent="Mozilla/5.0 (Windows NT 10.0; Win64; x64) AppleWebKit/537.36 (KHTML, like Gecko) Chrome/116.0.0.0 Safari/537.36 Edg/116.0.1938.36" etag="8apfzRVTLQ0NjLY6MAa7" version="21.6.6" type="device">
  <diagram name="第 1 页" id="DzKLkFwekbmZAEivgMjw">
    <mxGraphModel dx="691" dy="366" grid="1" gridSize="10" guides="1" tooltips="1" connect="1" arrows="1" fold="1" page="1" pageScale="1" pageWidth="827" pageHeight="1169" math="0" shadow="0">
      <root>
        <mxCell id="0" />
        <mxCell id="1" parent="0" />
        <mxCell id="CtFiqn7PLC3rVZBXfa0b-1" value="" style="edgeStyle=orthogonalEdgeStyle;rounded=0;orthogonalLoop=1;jettySize=auto;html=1;" edge="1" parent="1" source="CtFiqn7PLC3rVZBXfa0b-5" target="CtFiqn7PLC3rVZBXfa0b-8">
          <mxGeometry relative="1" as="geometry" />
        </mxCell>
        <mxCell id="CtFiqn7PLC3rVZBXfa0b-2" style="edgeStyle=orthogonalEdgeStyle;rounded=0;orthogonalLoop=1;jettySize=auto;html=1;exitX=0.5;exitY=1;exitDx=0;exitDy=0;entryX=0.5;entryY=0;entryDx=0;entryDy=0;" edge="1" parent="1" source="CtFiqn7PLC3rVZBXfa0b-5" target="CtFiqn7PLC3rVZBXfa0b-18">
          <mxGeometry relative="1" as="geometry" />
        </mxCell>
        <mxCell id="CtFiqn7PLC3rVZBXfa0b-35" value="" style="edgeStyle=orthogonalEdgeStyle;rounded=0;orthogonalLoop=1;jettySize=auto;html=1;" edge="1" parent="1" source="CtFiqn7PLC3rVZBXfa0b-5" target="CtFiqn7PLC3rVZBXfa0b-34">
          <mxGeometry relative="1" as="geometry" />
        </mxCell>
        <mxCell id="CtFiqn7PLC3rVZBXfa0b-5" value="&lt;font style=&quot;font-size: 18px;&quot;&gt;Tcp服务器&lt;/font&gt;" style="rounded=0;whiteSpace=wrap;html=1;fillColor=#1ba1e2;strokeColor=#006EAF;fontSize=18;fontColor=#ffffff;" vertex="1" parent="1">
          <mxGeometry x="360" y="200" width="160" height="160" as="geometry" />
        </mxCell>
        <mxCell id="CtFiqn7PLC3rVZBXfa0b-8" value="&lt;span style=&quot;font-size: 16px;&quot;&gt;监听连接&lt;/span&gt;" style="rounded=0;whiteSpace=wrap;html=1;" vertex="1" parent="1">
          <mxGeometry x="220" y="250" width="120" height="60" as="geometry" />
        </mxCell>
        <mxCell id="CtFiqn7PLC3rVZBXfa0b-18" value="获取数据" style="rounded=0;whiteSpace=wrap;html=1;fontSize=17;" vertex="1" parent="1">
          <mxGeometry x="380" y="380" width="120" height="60" as="geometry" />
        </mxCell>
        <mxCell id="CtFiqn7PLC3rVZBXfa0b-34" value="保存数据至数据库" style="rounded=0;whiteSpace=wrap;html=1;" vertex="1" parent="1">
          <mxGeometry x="540" y="250" width="120" height="60" as="geometry" />
        </mxCell>
      </root>
    </mxGraphModel>
  </diagram>
</mxfile>
